<svg width="608" height="351" viewBox="0 0 608 351" fill="none" xmlns="http://www.w3.org/2000/svg">
<rect width="608" height="351" fill="black"/>
<path d="M100.25 168.297C100.25 168.167 100.25 168.023 100.25 167.867C100.25 167.685 100.237 167.398 100.211 167.008C100.081 165.003 99.4818 163.245 98.4141 161.734C97.3724 160.224 95.9792 159.052 94.2344 158.219C92.5156 157.359 90.5755 156.93 88.4141 156.93C85.7839 156.93 83.375 157.503 81.1875 158.648C79 159.768 77.112 161.383 75.5234 163.492C73.9349 165.602 72.7109 168.076 71.8516 170.914C70.9922 173.753 70.5625 176.865 70.5625 180.25C70.5625 183.219 71.0573 185.784 72.0469 187.945C73.0625 190.081 74.5078 191.734 76.3828 192.906C78.2578 194.052 80.4974 194.625 83.1016 194.625C85.263 194.625 87.2552 194.234 89.0781 193.453C90.9271 192.672 92.5286 191.539 93.8828 190.055C95.263 188.57 96.3047 186.799 97.0078 184.742H108.609C107.776 188.805 106.135 192.346 103.688 195.367C101.24 198.388 98.1927 200.745 94.5469 202.438C90.901 204.104 86.8776 204.938 82.4766 204.938C77.6068 204.938 73.362 203.948 69.7422 201.969C66.1224 199.99 63.3229 197.203 61.3438 193.609C59.3906 190.016 58.4141 185.784 58.4141 180.914C58.4141 175.862 59.1432 171.253 60.6016 167.086C62.0859 162.893 64.1953 159.273 66.9297 156.227C69.6641 153.18 72.9193 150.836 76.6953 149.195C80.4974 147.529 84.7031 146.695 89.3125 146.695C93.6354 146.695 97.4635 147.529 100.797 149.195C104.156 150.836 106.812 153.141 108.766 156.109C110.745 159.078 111.786 162.516 111.891 166.422C111.917 166.839 111.917 167.203 111.891 167.516C111.865 167.802 111.839 168.062 111.812 168.297H100.25ZM156.153 204H144.083L149.161 180.367H124.239L119.161 204H107.091L119.083 147.633H131.153L126.27 170.445H151.192L156.075 147.633H168.145L156.153 204ZM193.345 159.078L181.353 181.461H195.963L193.619 159.078H193.345ZM198.072 204L196.666 190.562H176.822L169.478 204H156.9L188.736 147.633H202.642L209.908 204H198.072ZM222.217 204H210.694L222.686 147.633H232.53L250.616 185.25H250.85L258.975 147.633H270.498L258.506 204H248.663L230.577 166.383H230.342L222.217 204ZM320.191 174.078L318.784 181.266C317.352 188.896 314.253 194.755 309.488 198.844C304.722 202.906 298.771 204.938 291.636 204.938C286.688 204.938 282.391 203.922 278.745 201.891C275.126 199.833 272.326 196.982 270.347 193.336C268.394 189.69 267.417 185.432 267.417 180.562C267.417 177.021 267.847 173.583 268.706 170.25C269.566 166.917 270.842 163.831 272.534 160.992C274.227 158.128 276.297 155.628 278.745 153.492C281.193 151.357 284.019 149.69 287.222 148.492C290.425 147.294 293.967 146.695 297.847 146.695C301.31 146.695 304.448 147.19 307.261 148.18C310.073 149.169 312.495 150.536 314.527 152.281C316.558 154 318.133 156.005 319.253 158.297C320.373 160.589 320.946 163.036 320.972 165.641C320.972 165.771 320.972 165.927 320.972 166.109C320.972 166.292 320.959 166.448 320.933 166.578H309.448C309.318 164.651 308.745 162.958 307.73 161.5C306.74 160.016 305.386 158.857 303.667 158.023C301.948 157.19 299.93 156.773 297.613 156.773C294.592 156.773 291.948 157.424 289.683 158.727C287.417 160.029 285.516 161.786 283.98 164C282.469 166.188 281.336 168.674 280.581 171.461C279.826 174.247 279.448 177.125 279.448 180.094C279.448 183.062 279.956 185.654 280.972 187.867C281.988 190.081 283.472 191.799 285.425 193.023C287.378 194.247 289.774 194.859 292.613 194.859C294.982 194.859 297.144 194.404 299.097 193.492C301.05 192.555 302.691 191.266 304.019 189.625C305.373 187.958 306.284 186.044 306.753 183.883L306.988 182.945H294.605L296.441 174.078H320.191ZM356.562 193.922L354.492 204H317.109L329.102 147.633H366.484L364.375 157.711H338.906L336.016 170.875H360.039L358.125 180.211H334.102L331.055 193.922H356.562ZM397.114 193.727L395.005 204H358.091L370.083 147.633H381.958L372.114 193.727H397.114ZM427.08 156.852C424.476 156.852 422.08 157.451 419.892 158.648C417.705 159.846 415.791 161.513 414.15 163.648C412.535 165.784 411.272 168.245 410.361 171.031C409.449 173.818 408.994 176.812 408.994 180.016C408.994 183.01 409.515 185.615 410.556 187.828C411.624 190.042 413.121 191.76 415.048 192.984C416.976 194.182 419.228 194.781 421.806 194.781C424.41 194.781 426.806 194.182 428.994 192.984C431.207 191.786 433.121 190.12 434.736 187.984C436.377 185.849 437.64 183.388 438.525 180.602C439.436 177.789 439.892 174.781 439.892 171.578C439.892 168.583 439.358 165.992 438.291 163.805C437.249 161.591 435.765 159.885 433.837 158.688C431.936 157.464 429.684 156.852 427.08 156.852ZM421.572 204.938C416.52 204.938 412.158 203.909 408.486 201.852C404.814 199.768 401.976 196.904 399.97 193.258C397.991 189.612 397.002 185.419 397.002 180.68C397.002 175.784 397.757 171.266 399.267 167.125C400.804 162.984 402.939 159.391 405.673 156.344C408.434 153.271 411.65 150.901 415.322 149.234C418.994 147.542 422.978 146.695 427.275 146.695C432.379 146.695 436.767 147.737 440.439 149.82C444.137 151.878 446.976 154.729 448.955 158.375C450.934 162.021 451.923 166.214 451.923 170.953C451.923 175.875 451.155 180.406 449.619 184.547C448.082 188.688 445.934 192.294 443.173 195.367C440.413 198.414 437.197 200.771 433.525 202.438C429.853 204.104 425.869 204.938 421.572 204.938ZM505.6 174.078L504.194 181.266C502.761 188.896 499.663 194.755 494.897 198.844C490.131 202.906 484.181 204.938 477.045 204.938C472.097 204.938 467.801 203.922 464.155 201.891C460.535 199.833 457.735 196.982 455.756 193.336C453.803 189.69 452.827 185.432 452.827 180.562C452.827 177.021 453.256 173.583 454.116 170.25C454.975 166.917 456.251 163.831 457.944 160.992C459.636 158.128 461.707 155.628 464.155 153.492C466.603 151.357 469.428 149.69 472.631 148.492C475.834 147.294 479.376 146.695 483.256 146.695C486.72 146.695 489.858 147.19 492.67 148.18C495.483 149.169 497.905 150.536 499.936 152.281C501.967 154 503.543 156.005 504.663 158.297C505.782 160.589 506.355 163.036 506.381 165.641C506.381 165.771 506.381 165.927 506.381 166.109C506.381 166.292 506.368 166.448 506.342 166.578H494.858C494.728 164.651 494.155 162.958 493.139 161.5C492.149 160.016 490.795 158.857 489.077 158.023C487.358 157.19 485.34 156.773 483.022 156.773C480.001 156.773 477.358 157.424 475.092 158.727C472.827 160.029 470.926 161.786 469.389 164C467.879 166.188 466.746 168.674 465.991 171.461C465.235 174.247 464.858 177.125 464.858 180.094C464.858 183.062 465.366 185.654 466.381 187.867C467.397 190.081 468.881 191.799 470.834 193.023C472.788 194.247 475.183 194.859 478.022 194.859C480.392 194.859 482.553 194.404 484.506 193.492C486.459 192.555 488.1 191.266 489.428 189.625C490.782 187.958 491.694 186.044 492.163 183.883L492.397 182.945H480.014L481.85 174.078H505.6ZM503.769 187.398H515.136C515.344 188.961 515.969 190.341 517.011 191.539C518.053 192.711 519.433 193.635 521.152 194.312C522.87 194.99 524.823 195.328 527.011 195.328C529.016 195.328 530.787 195.055 532.323 194.508C533.886 193.935 535.11 193.141 535.995 192.125C536.881 191.109 537.323 189.872 537.323 188.414C537.323 186.695 536.724 185.315 535.527 184.273C534.355 183.232 532.232 182.242 529.159 181.305L524.316 179.781C519.628 178.323 516.099 176.357 513.73 173.883C511.36 171.409 510.175 168.258 510.175 164.43C510.175 160.862 511.086 157.75 512.909 155.094C514.758 152.438 517.297 150.38 520.527 148.922C523.782 147.438 527.506 146.695 531.698 146.695C536.047 146.695 539.836 147.385 543.066 148.766C546.321 150.12 548.847 152.086 550.644 154.664C552.441 157.216 553.339 160.276 553.339 163.844H542.284C542.232 162.333 541.764 161.018 540.878 159.898C540.019 158.753 538.821 157.867 537.284 157.242C535.774 156.591 533.964 156.266 531.855 156.266C529.797 156.266 528.04 156.578 526.581 157.203C525.149 157.828 524.055 158.648 523.3 159.664C522.571 160.68 522.206 161.786 522.206 162.984C522.206 164.573 522.818 165.927 524.042 167.047C525.292 168.141 527.336 169.104 530.175 169.938L535.136 171.461C540.006 172.919 543.612 174.833 545.956 177.203C548.3 179.573 549.472 182.672 549.472 186.5C549.472 190.016 548.56 193.167 546.737 195.953C544.915 198.714 542.31 200.901 538.925 202.516C535.566 204.13 531.529 204.938 526.816 204.938C522.336 204.938 518.378 204.247 514.941 202.867C511.503 201.487 508.795 199.495 506.816 196.891C504.862 194.26 503.847 191.096 503.769 187.398Z" fill="white"/>
</svg>
